<mxfile host="app.diagrams.net" modified="2020-11-18T15:29:17.202Z" agent="5.0 (Macintosh; Intel Mac OS X 10_15_7) AppleWebKit/605.1.15 (KHTML, like Gecko) Version/13.1.3 Safari/605.1.15" etag="_F8UGmo9OX35k2zA0s8o" version="13.9.9" type="github">
  <diagram id="UUgaOf1F6qNWSPvY_eEi" name="Page-1">
    <mxGraphModel dx="946" dy="662" grid="1" gridSize="10" guides="1" tooltips="1" connect="1" arrows="1" fold="1" page="1" pageScale="1" pageWidth="827" pageHeight="1169" math="0" shadow="0">
      <root>
        <mxCell id="0" />
        <mxCell id="1" parent="0" />
        <mxCell id="LLyH-jrI4SZby10niK_6-6" value="eu-central-1" style="outlineConnect=0;gradientColor=none;html=1;whiteSpace=wrap;fontSize=12;fontStyle=0;shape=mxgraph.aws4.group;grIcon=mxgraph.aws4.group_region;strokeColor=#879196;fillColor=none;verticalAlign=top;align=left;spacingLeft=30;fontColor=#879196;dashed=1;" parent="1" vertex="1">
          <mxGeometry x="20" y="80" width="790" height="580" as="geometry" />
        </mxCell>
        <mxCell id="LLyH-jrI4SZby10niK_6-10" value="eu-central-1a" style="outlineConnect=0;gradientColor=none;html=1;whiteSpace=wrap;fontSize=12;fontStyle=0;shape=mxgraph.aws4.group;grIcon=mxgraph.aws4.group_availability_zone;strokeColor=#545B64;fillColor=none;verticalAlign=top;align=left;spacingLeft=30;fontColor=#545B64;dashed=1;" parent="1" vertex="1">
          <mxGeometry x="30" y="150" width="326" height="500" as="geometry" />
        </mxCell>
        <mxCell id="LLyH-jrI4SZby10niK_6-7" value="eu-central-1c" style="outlineConnect=0;gradientColor=none;html=1;whiteSpace=wrap;fontSize=12;fontStyle=0;shape=mxgraph.aws4.group;grIcon=mxgraph.aws4.group_availability_zone;strokeColor=#545B64;fillColor=none;verticalAlign=top;align=left;spacingLeft=30;fontColor=#545B64;dashed=1;" parent="1" vertex="1">
          <mxGeometry x="670" y="150" width="134" height="500" as="geometry" />
        </mxCell>
        <mxCell id="LLyH-jrI4SZby10niK_6-9" value="eu-central-1b" style="outlineConnect=0;gradientColor=none;html=1;whiteSpace=wrap;fontSize=12;fontStyle=0;shape=mxgraph.aws4.group;grIcon=mxgraph.aws4.group_availability_zone;strokeColor=#545B64;fillColor=none;verticalAlign=top;align=left;spacingLeft=30;fontColor=#545B64;dashed=1;" parent="1" vertex="1">
          <mxGeometry x="366" y="150" width="294" height="500" as="geometry" />
        </mxCell>
        <mxCell id="LLyH-jrI4SZby10niK_6-5" value="VPC (default)" style="outlineConnect=0;html=1;whiteSpace=wrap;fontSize=12;fontStyle=0;shape=mxgraph.aws4.group;grIcon=mxgraph.aws4.group_vpc;strokeColor=#666666;fillColor=#f5f5f5;verticalAlign=top;align=left;spacingLeft=30;dashed=0;fillOpacity=60;fontColor=#333333;" parent="1" vertex="1">
          <mxGeometry x="40" y="180" width="750" height="460" as="geometry" />
        </mxCell>
        <mxCell id="LLyH-jrI4SZby10niK_6-4" value="Subnet &lt;br&gt;DEV" style="outlineConnect=0;gradientColor=none;html=1;whiteSpace=wrap;fontSize=12;fontStyle=0;shape=mxgraph.aws4.group;grIcon=mxgraph.aws4.group_subnet;strokeColor=#879196;fillColor=none;verticalAlign=top;align=left;spacingLeft=30;fontColor=#879196;dashed=0;" parent="1" vertex="1">
          <mxGeometry x="50" y="280" width="296" height="220" as="geometry" />
        </mxCell>
        <mxCell id="LLyH-jrI4SZby10niK_6-27" style="edgeStyle=orthogonalEdgeStyle;rounded=0;orthogonalLoop=1;jettySize=auto;html=1;exitX=1;exitY=0.5;exitDx=0;exitDy=0;exitPerimeter=0;entryX=0;entryY=0.5;entryDx=0;entryDy=0;entryPerimeter=0;" parent="1" source="LLyH-jrI4SZby10niK_6-2" target="LLyH-jrI4SZby10niK_6-19" edge="1">
          <mxGeometry relative="1" as="geometry" />
        </mxCell>
        <mxCell id="LLyH-jrI4SZby10niK_6-2" value="Internet gateway" style="outlineConnect=0;dashed=0;verticalLabelPosition=bottom;verticalAlign=top;align=center;html=1;shape=mxgraph.aws3.internet_gateway;fillColor=#F58534;gradientColor=none;" parent="1" vertex="1">
          <mxGeometry x="176" y="200" width="28.75" height="30" as="geometry" />
        </mxCell>
        <mxCell id="LLyH-jrI4SZby10niK_6-28" style="edgeStyle=orthogonalEdgeStyle;rounded=0;orthogonalLoop=1;jettySize=auto;html=1;exitX=0.92;exitY=0.5;exitDx=0;exitDy=0;exitPerimeter=0;entryX=0.5;entryY=0;entryDx=0;entryDy=0;entryPerimeter=0;" parent="1" source="LLyH-jrI4SZby10niK_6-12" target="LLyH-jrI4SZby10niK_6-2" edge="1">
          <mxGeometry relative="1" as="geometry" />
        </mxCell>
        <mxCell id="LLyH-jrI4SZby10niK_6-12" value="" style="aspect=fixed;pointerEvents=1;shadow=0;dashed=0;html=1;strokeColor=none;labelPosition=center;verticalLabelPosition=bottom;verticalAlign=top;align=center;fillColor=#00188D;shape=mxgraph.azure.laptop" parent="1" vertex="1">
          <mxGeometry x="50" y="30" width="66.66" height="40" as="geometry" />
        </mxCell>
        <mxCell id="LLyH-jrI4SZby10niK_6-15" value="Subnet (custom)" style="outlineConnect=0;gradientColor=none;html=1;whiteSpace=wrap;fontSize=12;fontStyle=0;shape=mxgraph.aws4.group;grIcon=mxgraph.aws4.group_subnet;strokeColor=#879196;fillColor=none;verticalAlign=top;align=left;spacingLeft=30;fontColor=#879196;dashed=0;" parent="1" vertex="1">
          <mxGeometry x="680" y="280" width="104" height="220" as="geometry" />
        </mxCell>
        <mxCell id="LLyH-jrI4SZby10niK_6-16" value="Subnet&lt;br&gt;PROD" style="outlineConnect=0;gradientColor=none;html=1;whiteSpace=wrap;fontSize=12;fontStyle=0;shape=mxgraph.aws4.group;grIcon=mxgraph.aws4.group_subnet;strokeColor=#879196;fillColor=none;verticalAlign=top;align=left;spacingLeft=30;fontColor=#879196;dashed=0;" parent="1" vertex="1">
          <mxGeometry x="376" y="280" width="274" height="220" as="geometry" />
        </mxCell>
        <mxCell id="LLyH-jrI4SZby10niK_6-23" style="edgeStyle=orthogonalEdgeStyle;rounded=0;orthogonalLoop=1;jettySize=auto;html=1;exitX=0.5;exitY=1;exitDx=0;exitDy=0;exitPerimeter=0;" parent="1" source="LLyH-jrI4SZby10niK_6-19" target="LLyH-jrI4SZby10niK_6-16" edge="1">
          <mxGeometry relative="1" as="geometry" />
        </mxCell>
        <mxCell id="LLyH-jrI4SZby10niK_6-24" style="edgeStyle=orthogonalEdgeStyle;rounded=0;orthogonalLoop=1;jettySize=auto;html=1;exitX=0.5;exitY=1;exitDx=0;exitDy=0;exitPerimeter=0;" parent="1" source="LLyH-jrI4SZby10niK_6-19" target="LLyH-jrI4SZby10niK_6-4" edge="1">
          <mxGeometry relative="1" as="geometry" />
        </mxCell>
        <mxCell id="LLyH-jrI4SZby10niK_6-25" style="edgeStyle=orthogonalEdgeStyle;rounded=0;orthogonalLoop=1;jettySize=auto;html=1;exitX=0.5;exitY=1;exitDx=0;exitDy=0;exitPerimeter=0;" parent="1" source="LLyH-jrI4SZby10niK_6-19" target="LLyH-jrI4SZby10niK_6-15" edge="1">
          <mxGeometry relative="1" as="geometry" />
        </mxCell>
        <mxCell id="LLyH-jrI4SZby10niK_6-19" value="Route table&lt;br&gt;public" style="outlineConnect=0;dashed=0;verticalLabelPosition=middle;verticalAlign=middle;align=left;html=1;shape=mxgraph.aws3.route_table;fillColor=#F58536;gradientColor=none;labelPosition=right;" parent="1" vertex="1">
          <mxGeometry x="249.02" y="204.5" width="23.71" height="21" as="geometry" />
        </mxCell>
        <mxCell id="Gg3K2ls2yGk3OWGE8Ab6-1" value="Security Group" style="fontStyle=0;verticalAlign=top;align=center;spacingTop=-2;fillColor=#fff2cc;rounded=0;whiteSpace=wrap;html=1;strokeColor=#d6b656;strokeWidth=2;dashed=1;container=1;collapsible=0;expand=0;recursiveResize=0;" parent="1" vertex="1">
          <mxGeometry x="68" y="373.5" width="80" height="120" as="geometry" />
        </mxCell>
        <mxCell id="Gg3K2ls2yGk3OWGE8Ab6-4" value="" style="outlineConnect=0;dashed=0;verticalLabelPosition=bottom;verticalAlign=top;align=center;html=1;shape=mxgraph.aws3.ec2;fillColor=#F58534;gradientColor=none;" parent="Gg3K2ls2yGk3OWGE8Ab6-1" vertex="1">
          <mxGeometry x="23.999999999999996" y="74" width="32.9" height="40" as="geometry" />
        </mxCell>
        <mxCell id="paXODEU10Lux1fWIncTx-1" value="" style="shape=image;html=1;verticalAlign=top;verticalLabelPosition=bottom;labelBackgroundColor=#ffffff;imageAspect=0;aspect=fixed;image=https://cdn2.iconfinder.com/data/icons/nodejs-1/128/nodejs-128.png" parent="Gg3K2ls2yGk3OWGE8Ab6-1" vertex="1">
          <mxGeometry x="16.45" y="30" width="48" height="48" as="geometry" />
        </mxCell>
        <mxCell id="Gg3K2ls2yGk3OWGE8Ab6-3" value="Route 53" style="outlineConnect=0;dashed=0;verticalLabelPosition=middle;verticalAlign=middle;align=left;html=1;shape=mxgraph.aws3.route_53;fillColor=#F58536;gradientColor=none;labelPosition=right;" parent="1" vertex="1">
          <mxGeometry x="343.02" y="200" width="22.98" height="30" as="geometry" />
        </mxCell>
        <mxCell id="Gg3K2ls2yGk3OWGE8Ab6-6" style="edgeStyle=orthogonalEdgeStyle;rounded=0;orthogonalLoop=1;jettySize=auto;html=1;entryX=0.5;entryY=1;entryDx=0;entryDy=0;entryPerimeter=0;endArrow=none;endFill=0;curved=1;dashed=1;" parent="1" source="LLyH-jrI4SZby10niK_6-1" target="Gg3K2ls2yGk3OWGE8Ab6-3" edge="1">
          <mxGeometry relative="1" as="geometry">
            <mxPoint x="161.45000000000005" y="450" as="sourcePoint" />
            <mxPoint x="482.49" y="235" as="targetPoint" />
          </mxGeometry>
        </mxCell>
        <mxCell id="WJ81USQerfGTGFu2v-6j-1" value="IAM role" style="outlineConnect=0;dashed=0;verticalLabelPosition=bottom;verticalAlign=top;align=center;html=1;shape=mxgraph.aws3.role;fillColor=#759C3E;gradientColor=none;" parent="1" vertex="1">
          <mxGeometry x="394.93" y="93" width="35.07" height="29.5" as="geometry" />
        </mxCell>
        <mxCell id="WJ81USQerfGTGFu2v-6j-3" value="db secrets" style="outlineConnect=0;fontColor=#232F3E;gradientColor=#F54749;gradientDirection=north;fillColor=#C7131F;strokeColor=#ffffff;dashed=0;verticalLabelPosition=bottom;verticalAlign=top;align=center;html=1;fontSize=12;fontStyle=0;aspect=fixed;shape=mxgraph.aws4.resourceIcon;resIcon=mxgraph.aws4.secrets_manager;" parent="1" vertex="1">
          <mxGeometry x="327" y="92.5" width="30" height="30" as="geometry" />
        </mxCell>
        <mxCell id="mmzX4yjb0Bl6ZRDBmCqj-1" value="Security Group" style="fontStyle=0;verticalAlign=top;align=center;spacingTop=-2;fillColor=#fff2cc;rounded=0;whiteSpace=wrap;html=1;strokeColor=#d6b656;strokeWidth=2;dashed=1;container=1;collapsible=0;expand=0;recursiveResize=0;" parent="1" vertex="1">
          <mxGeometry x="158" y="373.5" width="80" height="120" as="geometry" />
        </mxCell>
        <mxCell id="mmzX4yjb0Bl6ZRDBmCqj-2" value="" style="outlineConnect=0;dashed=0;verticalLabelPosition=bottom;verticalAlign=top;align=center;html=1;shape=mxgraph.aws3.ec2;fillColor=#F58534;gradientColor=none;" parent="mmzX4yjb0Bl6ZRDBmCqj-1" vertex="1">
          <mxGeometry x="23.999999999999996" y="74" width="32.9" height="40" as="geometry" />
        </mxCell>
        <mxCell id="mmzX4yjb0Bl6ZRDBmCqj-3" value="" style="shape=image;html=1;verticalAlign=top;verticalLabelPosition=bottom;labelBackgroundColor=#ffffff;imageAspect=0;aspect=fixed;image=https://cdn2.iconfinder.com/data/icons/nodejs-1/128/nodejs-128.png" parent="mmzX4yjb0Bl6ZRDBmCqj-1" vertex="1">
          <mxGeometry x="16.45" y="30" width="48" height="48" as="geometry" />
        </mxCell>
        <mxCell id="mmzX4yjb0Bl6ZRDBmCqj-4" value="Security Group" style="fontStyle=0;verticalAlign=top;align=center;spacingTop=-2;fillColor=#fff2cc;rounded=0;whiteSpace=wrap;html=1;strokeColor=#d6b656;strokeWidth=2;dashed=1;container=1;collapsible=0;expand=0;recursiveResize=0;" parent="1" vertex="1">
          <mxGeometry x="248" y="373.5" width="80" height="120" as="geometry" />
        </mxCell>
        <mxCell id="mmzX4yjb0Bl6ZRDBmCqj-5" value="" style="outlineConnect=0;dashed=0;verticalLabelPosition=bottom;verticalAlign=top;align=center;html=1;shape=mxgraph.aws3.ec2;fillColor=#F58534;gradientColor=none;" parent="mmzX4yjb0Bl6ZRDBmCqj-4" vertex="1">
          <mxGeometry x="23.999999999999996" y="74" width="32.9" height="40" as="geometry" />
        </mxCell>
        <mxCell id="mmzX4yjb0Bl6ZRDBmCqj-6" value="" style="shape=image;html=1;verticalAlign=top;verticalLabelPosition=bottom;labelBackgroundColor=#ffffff;imageAspect=0;aspect=fixed;image=https://cdn2.iconfinder.com/data/icons/nodejs-1/128/nodejs-128.png" parent="mmzX4yjb0Bl6ZRDBmCqj-4" vertex="1">
          <mxGeometry x="16.45" y="30" width="48" height="48" as="geometry" />
        </mxCell>
        <mxCell id="mmzX4yjb0Bl6ZRDBmCqj-11" value="Subnet (custom)" style="outlineConnect=0;gradientColor=none;html=1;whiteSpace=wrap;fontSize=12;fontStyle=0;shape=mxgraph.aws4.group;grIcon=mxgraph.aws4.group_subnet;strokeColor=#879196;fillColor=none;verticalAlign=top;align=left;spacingLeft=30;fontColor=#879196;dashed=0;" parent="1" vertex="1">
          <mxGeometry x="50" y="510" width="296" height="123.5" as="geometry" />
        </mxCell>
        <mxCell id="LLyH-jrI4SZby10niK_6-3" value="Security Group" style="fontStyle=0;verticalAlign=top;align=center;spacingTop=-2;fillColor=#fff2cc;rounded=0;whiteSpace=wrap;html=1;strokeColor=#d6b656;strokeWidth=2;dashed=1;container=1;collapsible=0;expand=0;recursiveResize=0;" parent="1" vertex="1">
          <mxGeometry x="141.5" y="540" width="114.5" height="87" as="geometry" />
        </mxCell>
        <mxCell id="LLyH-jrI4SZby10niK_6-1" value="" style="outlineConnect=0;dashed=0;verticalLabelPosition=bottom;verticalAlign=top;align=center;html=1;shape=mxgraph.aws3.rds_db_instance;fillColor=#2E73B8;gradientColor=none;" parent="LLyH-jrI4SZby10niK_6-3" vertex="1">
          <mxGeometry x="40" y="32" width="41.25" height="48" as="geometry" />
        </mxCell>
        <mxCell id="mmzX4yjb0Bl6ZRDBmCqj-12" value="Subnet (custom)" style="outlineConnect=0;gradientColor=none;html=1;whiteSpace=wrap;fontSize=12;fontStyle=0;shape=mxgraph.aws4.group;grIcon=mxgraph.aws4.group_subnet;strokeColor=#879196;fillColor=none;verticalAlign=top;align=left;spacingLeft=30;fontColor=#879196;dashed=0;" parent="1" vertex="1">
          <mxGeometry x="376" y="510" width="274" height="123.5" as="geometry" />
        </mxCell>
        <mxCell id="mmzX4yjb0Bl6ZRDBmCqj-14" value="Subnet (custom)" style="outlineConnect=0;gradientColor=none;html=1;whiteSpace=wrap;fontSize=12;fontStyle=0;shape=mxgraph.aws4.group;grIcon=mxgraph.aws4.group_subnet;strokeColor=#879196;fillColor=none;verticalAlign=top;align=left;spacingLeft=30;fontColor=#879196;dashed=0;" parent="1" vertex="1">
          <mxGeometry x="680" y="510" width="104" height="123.5" as="geometry" />
        </mxCell>
        <mxCell id="mmzX4yjb0Bl6ZRDBmCqj-20" style="edgeStyle=orthogonalEdgeStyle;rounded=0;orthogonalLoop=1;jettySize=auto;html=1;exitX=0.5;exitY=1;exitDx=0;exitDy=0;exitPerimeter=0;entryX=0.5;entryY=0;entryDx=0;entryDy=0;" parent="1" source="mmzX4yjb0Bl6ZRDBmCqj-15" target="mmzX4yjb0Bl6ZRDBmCqj-4" edge="1">
          <mxGeometry relative="1" as="geometry">
            <Array as="points">
              <mxPoint x="156" y="330" />
              <mxPoint x="198" y="330" />
              <mxPoint x="198" y="348" />
              <mxPoint x="288" y="348" />
            </Array>
          </mxGeometry>
        </mxCell>
        <mxCell id="mmzX4yjb0Bl6ZRDBmCqj-21" style="edgeStyle=orthogonalEdgeStyle;rounded=0;orthogonalLoop=1;jettySize=auto;html=1;exitX=0.5;exitY=1;exitDx=0;exitDy=0;exitPerimeter=0;entryX=0.5;entryY=0;entryDx=0;entryDy=0;" parent="1" source="mmzX4yjb0Bl6ZRDBmCqj-15" target="Gg3K2ls2yGk3OWGE8Ab6-1" edge="1">
          <mxGeometry relative="1" as="geometry">
            <Array as="points">
              <mxPoint x="156" y="330" />
              <mxPoint x="198" y="330" />
              <mxPoint x="198" y="348" />
              <mxPoint x="108" y="348" />
            </Array>
          </mxGeometry>
        </mxCell>
        <mxCell id="mmzX4yjb0Bl6ZRDBmCqj-26" style="edgeStyle=orthogonalEdgeStyle;rounded=0;orthogonalLoop=1;jettySize=auto;html=1;exitX=0.5;exitY=1;exitDx=0;exitDy=0;exitPerimeter=0;entryX=0.5;entryY=0;entryDx=0;entryDy=0;startArrow=none;startFill=0;" parent="1" source="mmzX4yjb0Bl6ZRDBmCqj-15" target="mmzX4yjb0Bl6ZRDBmCqj-1" edge="1">
          <mxGeometry relative="1" as="geometry">
            <Array as="points">
              <mxPoint x="156" y="330" />
              <mxPoint x="198" y="330" />
            </Array>
          </mxGeometry>
        </mxCell>
        <mxCell id="mmzX4yjb0Bl6ZRDBmCqj-15" value="&lt;b&gt;NLB&lt;/b&gt;" style="outlineConnect=0;dashed=0;verticalLabelPosition=bottom;verticalAlign=top;align=right;html=1;shape=mxgraph.aws3.classic_load_balancer;fillColor=#F58534;gradientColor=none;labelPosition=left;" parent="1" vertex="1">
          <mxGeometry x="141.5" y="290.5" width="28.75" height="30" as="geometry" />
        </mxCell>
        <mxCell id="mmzX4yjb0Bl6ZRDBmCqj-23" value="" style="edgeStyle=orthogonalEdgeStyle;rounded=0;orthogonalLoop=1;jettySize=auto;html=1;startArrow=classic;startFill=1;" parent="1" source="mmzX4yjb0Bl6ZRDBmCqj-22" target="mmzX4yjb0Bl6ZRDBmCqj-15" edge="1">
          <mxGeometry relative="1" as="geometry" />
        </mxCell>
        <mxCell id="mmzX4yjb0Bl6ZRDBmCqj-22" value="&lt;b&gt;ElasticIP&lt;/b&gt;" style="outlineConnect=0;dashed=0;verticalLabelPosition=bottom;verticalAlign=top;align=center;html=1;shape=mxgraph.aws3.elastic_ip;fillColor=#F58534;gradientColor=none;" parent="1" vertex="1">
          <mxGeometry x="216" y="300.5" width="40" height="10" as="geometry" />
        </mxCell>
        <mxCell id="FU5zcwVCU_c94r31TygK-1" value="Security Group" style="fontStyle=0;verticalAlign=top;align=center;spacingTop=-2;fillColor=#fff2cc;rounded=0;whiteSpace=wrap;html=1;strokeColor=#d6b656;strokeWidth=2;dashed=1;container=1;collapsible=0;expand=0;recursiveResize=0;" vertex="1" parent="1">
          <mxGeometry x="383" y="371.5" width="80" height="120" as="geometry" />
        </mxCell>
        <mxCell id="FU5zcwVCU_c94r31TygK-2" value="" style="outlineConnect=0;dashed=0;verticalLabelPosition=bottom;verticalAlign=top;align=center;html=1;shape=mxgraph.aws3.ec2;fillColor=#F58534;gradientColor=none;" vertex="1" parent="FU5zcwVCU_c94r31TygK-1">
          <mxGeometry x="23.999999999999996" y="74" width="32.9" height="40" as="geometry" />
        </mxCell>
        <mxCell id="FU5zcwVCU_c94r31TygK-3" value="" style="shape=image;html=1;verticalAlign=top;verticalLabelPosition=bottom;labelBackgroundColor=#ffffff;imageAspect=0;aspect=fixed;image=https://cdn2.iconfinder.com/data/icons/nodejs-1/128/nodejs-128.png" vertex="1" parent="FU5zcwVCU_c94r31TygK-1">
          <mxGeometry x="16.45" y="30" width="48" height="48" as="geometry" />
        </mxCell>
        <mxCell id="FU5zcwVCU_c94r31TygK-4" value="Security Group" style="fontStyle=0;verticalAlign=top;align=center;spacingTop=-2;fillColor=#fff2cc;rounded=0;whiteSpace=wrap;html=1;strokeColor=#d6b656;strokeWidth=2;dashed=1;container=1;collapsible=0;expand=0;recursiveResize=0;" vertex="1" parent="1">
          <mxGeometry x="473" y="371.5" width="80" height="120" as="geometry" />
        </mxCell>
        <mxCell id="FU5zcwVCU_c94r31TygK-5" value="" style="outlineConnect=0;dashed=0;verticalLabelPosition=bottom;verticalAlign=top;align=center;html=1;shape=mxgraph.aws3.ec2;fillColor=#F58534;gradientColor=none;" vertex="1" parent="FU5zcwVCU_c94r31TygK-4">
          <mxGeometry x="23.999999999999996" y="74" width="32.9" height="40" as="geometry" />
        </mxCell>
        <mxCell id="FU5zcwVCU_c94r31TygK-6" value="" style="shape=image;html=1;verticalAlign=top;verticalLabelPosition=bottom;labelBackgroundColor=#ffffff;imageAspect=0;aspect=fixed;image=https://cdn2.iconfinder.com/data/icons/nodejs-1/128/nodejs-128.png" vertex="1" parent="FU5zcwVCU_c94r31TygK-4">
          <mxGeometry x="16.45" y="30" width="48" height="48" as="geometry" />
        </mxCell>
        <mxCell id="FU5zcwVCU_c94r31TygK-10" style="edgeStyle=orthogonalEdgeStyle;rounded=0;orthogonalLoop=1;jettySize=auto;html=1;exitX=0.5;exitY=1;exitDx=0;exitDy=0;exitPerimeter=0;entryX=0.5;entryY=0;entryDx=0;entryDy=0;" edge="1" parent="1" source="FU5zcwVCU_c94r31TygK-13" target="FU5zcwVCU_c94r31TygK-7">
          <mxGeometry relative="1" as="geometry">
            <Array as="points">
              <mxPoint x="471" y="328" />
              <mxPoint x="513" y="328" />
              <mxPoint x="513" y="346" />
              <mxPoint x="603" y="346" />
            </Array>
          </mxGeometry>
        </mxCell>
        <mxCell id="FU5zcwVCU_c94r31TygK-11" style="edgeStyle=orthogonalEdgeStyle;rounded=0;orthogonalLoop=1;jettySize=auto;html=1;exitX=0.5;exitY=1;exitDx=0;exitDy=0;exitPerimeter=0;entryX=0.5;entryY=0;entryDx=0;entryDy=0;" edge="1" parent="1" source="FU5zcwVCU_c94r31TygK-13" target="FU5zcwVCU_c94r31TygK-1">
          <mxGeometry relative="1" as="geometry">
            <Array as="points">
              <mxPoint x="471" y="328" />
              <mxPoint x="513" y="328" />
              <mxPoint x="513" y="346" />
              <mxPoint x="423" y="346" />
            </Array>
          </mxGeometry>
        </mxCell>
        <mxCell id="FU5zcwVCU_c94r31TygK-12" style="edgeStyle=orthogonalEdgeStyle;rounded=0;orthogonalLoop=1;jettySize=auto;html=1;exitX=0.5;exitY=1;exitDx=0;exitDy=0;exitPerimeter=0;entryX=0.5;entryY=0;entryDx=0;entryDy=0;startArrow=none;startFill=0;" edge="1" parent="1" source="FU5zcwVCU_c94r31TygK-13" target="FU5zcwVCU_c94r31TygK-4">
          <mxGeometry relative="1" as="geometry">
            <Array as="points">
              <mxPoint x="471" y="328" />
              <mxPoint x="513" y="328" />
            </Array>
          </mxGeometry>
        </mxCell>
        <mxCell id="FU5zcwVCU_c94r31TygK-13" value="&lt;b&gt;NLB&lt;/b&gt;" style="outlineConnect=0;dashed=0;verticalLabelPosition=bottom;verticalAlign=top;align=right;html=1;shape=mxgraph.aws3.classic_load_balancer;fillColor=#F58534;gradientColor=none;labelPosition=left;" vertex="1" parent="1">
          <mxGeometry x="456.5" y="288.5" width="28.75" height="30" as="geometry" />
        </mxCell>
        <mxCell id="FU5zcwVCU_c94r31TygK-14" value="" style="edgeStyle=orthogonalEdgeStyle;rounded=0;orthogonalLoop=1;jettySize=auto;html=1;startArrow=classic;startFill=1;" edge="1" parent="1" source="FU5zcwVCU_c94r31TygK-15" target="FU5zcwVCU_c94r31TygK-13">
          <mxGeometry relative="1" as="geometry" />
        </mxCell>
        <mxCell id="FU5zcwVCU_c94r31TygK-15" value="&lt;b&gt;ElasticIP&lt;/b&gt;" style="outlineConnect=0;dashed=0;verticalLabelPosition=bottom;verticalAlign=top;align=center;html=1;shape=mxgraph.aws3.elastic_ip;fillColor=#F58534;gradientColor=none;" vertex="1" parent="1">
          <mxGeometry x="531" y="298.5" width="40" height="10" as="geometry" />
        </mxCell>
        <mxCell id="FU5zcwVCU_c94r31TygK-19" style="edgeStyle=orthogonalEdgeStyle;curved=1;rounded=0;orthogonalLoop=1;jettySize=auto;html=1;exitX=1;exitY=0.5;exitDx=0;exitDy=0;exitPerimeter=0;entryX=0.5;entryY=1;entryDx=0;entryDy=0;entryPerimeter=0;labelBackgroundColor=#FFE6CC;fontColor=#FF8000;align=center;strokeColor=#FFB570;" edge="1" parent="1" source="FU5zcwVCU_c94r31TygK-16" target="FU5zcwVCU_c94r31TygK-5">
          <mxGeometry relative="1" as="geometry">
            <Array as="points">
              <mxPoint x="660" y="108" />
              <mxPoint x="660" y="506" />
              <mxPoint x="514" y="506" />
            </Array>
          </mxGeometry>
        </mxCell>
        <mxCell id="FU5zcwVCU_c94r31TygK-20" style="edgeStyle=orthogonalEdgeStyle;curved=1;rounded=0;orthogonalLoop=1;jettySize=auto;html=1;exitX=1;exitY=0.5;exitDx=0;exitDy=0;exitPerimeter=0;entryX=0.5;entryY=1;entryDx=0;entryDy=0;entryPerimeter=0;labelBackgroundColor=#FFE6CC;fontColor=#FF8000;align=center;strokeColor=#FFB570;" edge="1" parent="1" source="FU5zcwVCU_c94r31TygK-16" target="FU5zcwVCU_c94r31TygK-2">
          <mxGeometry relative="1" as="geometry">
            <Array as="points">
              <mxPoint x="640" y="108" />
              <mxPoint x="640" y="506" />
              <mxPoint x="424" y="506" />
            </Array>
          </mxGeometry>
        </mxCell>
        <mxCell id="FU5zcwVCU_c94r31TygK-16" value="AMI" style="outlineConnect=0;dashed=0;verticalLabelPosition=bottom;verticalAlign=top;align=center;html=1;shape=mxgraph.aws3.ami;fillColor=#F58534;gradientColor=none;" vertex="1" parent="1">
          <mxGeometry x="499.57" y="91" width="31.43" height="33" as="geometry" />
        </mxCell>
        <mxCell id="FU5zcwVCU_c94r31TygK-17" value="&lt;b&gt;&lt;font style=&quot;font-size: 14px&quot;&gt;Build &lt;br&gt;the AMI&lt;/font&gt;&lt;/b&gt;" style="edgeStyle=entityRelationEdgeStyle;rounded=0;orthogonalLoop=1;jettySize=auto;html=1;exitX=1;exitY=0.5;exitDx=0;exitDy=0;exitPerimeter=0;entryX=0;entryY=0.5;entryDx=0;entryDy=0;entryPerimeter=0;elbow=vertical;labelPosition=left;verticalLabelPosition=middle;align=center;verticalAlign=middle;labelBackgroundColor=#FFE6CC;horizontal=1;spacingTop=2;spacingRight=3;fontColor=#FF8000;strokeColor=#FFB570;" edge="1" parent="1" source="mmzX4yjb0Bl6ZRDBmCqj-5" target="FU5zcwVCU_c94r31TygK-16">
          <mxGeometry x="-0.2142" y="6" relative="1" as="geometry">
            <mxPoint as="offset" />
          </mxGeometry>
        </mxCell>
        <mxCell id="FU5zcwVCU_c94r31TygK-7" value="Security Group" style="fontStyle=0;verticalAlign=top;align=center;spacingTop=-2;fillColor=#fff2cc;rounded=0;whiteSpace=wrap;html=1;strokeColor=#d6b656;strokeWidth=2;dashed=1;container=1;collapsible=0;expand=0;recursiveResize=0;" vertex="1" parent="1">
          <mxGeometry x="563" y="371.5" width="80" height="120" as="geometry" />
        </mxCell>
        <mxCell id="FU5zcwVCU_c94r31TygK-8" value="" style="outlineConnect=0;dashed=0;verticalLabelPosition=bottom;verticalAlign=top;align=center;html=1;shape=mxgraph.aws3.ec2;fillColor=#F58534;gradientColor=none;" vertex="1" parent="FU5zcwVCU_c94r31TygK-7">
          <mxGeometry x="23.999999999999996" y="74" width="32.9" height="40" as="geometry" />
        </mxCell>
        <mxCell id="FU5zcwVCU_c94r31TygK-9" value="" style="shape=image;html=1;verticalAlign=top;verticalLabelPosition=bottom;labelBackgroundColor=#ffffff;imageAspect=0;aspect=fixed;image=https://cdn2.iconfinder.com/data/icons/nodejs-1/128/nodejs-128.png" vertex="1" parent="FU5zcwVCU_c94r31TygK-7">
          <mxGeometry x="16.45" y="30" width="48" height="48" as="geometry" />
        </mxCell>
        <mxCell id="FU5zcwVCU_c94r31TygK-18" style="edgeStyle=orthogonalEdgeStyle;rounded=0;orthogonalLoop=1;jettySize=auto;html=1;exitX=1;exitY=0.5;exitDx=0;exitDy=0;exitPerimeter=0;entryX=0.5;entryY=1;entryDx=0;entryDy=0;entryPerimeter=0;labelBackgroundColor=#FFE6CC;fontColor=#FF8000;align=center;curved=1;strokeColor=#FFB570;" edge="1" parent="1" source="FU5zcwVCU_c94r31TygK-16" target="FU5zcwVCU_c94r31TygK-8">
          <mxGeometry relative="1" as="geometry">
            <Array as="points">
              <mxPoint x="670" y="108" />
              <mxPoint x="670" y="506" />
              <mxPoint x="604" y="506" />
            </Array>
          </mxGeometry>
        </mxCell>
      </root>
    </mxGraphModel>
  </diagram>
</mxfile>
